<?xml version="1.0" encoding="UTF-8"?>
<svg id="Layer_1" xmlns="http://www.w3.org/2000/svg" viewBox="0 0 687.28 183.22">
  <defs>
    <style>
      .cls-1 {
        fill: #009cde;
      }

      .cls-2 {
        fill: #003087;
      }
    </style>
  </defs>
  <path class="cls-2" d="M116.34,8.89C107.72,2.97,96.48,0,82.61,0H28.92C24.67,0,22.32,2.13,21.88,6.38L.07,143.28c-.23,1.34.11,2.57,1.01,3.69.89,1.12,2.01,1.68,3.35,1.68h25.5c4.47,0,6.93-2.12,7.38-6.38l6.04-36.91c.22-1.79,1.01-3.24,2.35-4.36,1.34-1.12,3.02-1.85,5.03-2.18,2.01-.33,3.91-.5,5.7-.5s3.91.11,6.38.34c2.46.22,4.03.33,4.7.33,19.24,0,34.34-5.42,45.3-16.27,10.96-10.85,16.44-25.89,16.44-45.13,0-13.2-4.31-22.76-12.92-28.69h0ZM88.65,50c-1.12,7.83-4.03,12.97-8.72,15.43-4.7,2.46-11.41,3.69-20.13,3.69l-11.07.34,5.71-35.9c.45-2.46,1.9-3.69,4.36-3.69h6.38c8.94,0,15.43,1.29,19.46,3.86,4.02,2.57,5.37,8,4.02,16.28h0Z"/>
  <path class="cls-1" d="M682.91,0h-24.83c-2.47,0-3.92,1.23-4.36,3.69l-21.81,139.59-.34.67c0,1.12.45,2.18,1.34,3.19.89,1,2.01,1.51,3.35,1.51h22.15c4.24,0,6.59-2.12,7.05-6.37l21.81-137.24v-.33c0-3.13-1.46-4.7-4.37-4.7h0Z"/>
  <path class="cls-2" d="M382.93,54.03c0-1.12-.45-2.18-1.34-3.19-.9-1.01-1.9-1.51-3.02-1.51h-25.84c-2.47,0-4.48,1.12-6.04,3.35l-35.57,52.35-14.76-50.33c-1.12-3.58-3.58-5.37-7.38-5.37h-25.17c-1.12,0-2.13.5-3.02,1.51-.9,1.01-1.34,2.07-1.34,3.19,0,.45,2.18,7.05,6.54,19.8,4.36,12.75,9.06,26.51,14.09,41.28,5.03,14.76,7.66,22.6,7.89,23.49-18.34,25.06-27.51,38.48-27.51,40.27,0,2.91,1.45,4.36,4.36,4.36h25.84c2.46,0,4.47-1.12,6.04-3.35l85.57-123.49c.44-.44.67-1.22.67-2.35h0Z"/>
  <path class="cls-1" d="M623.53,49.33h-25.5c-3.13,0-5.03,3.69-5.7,11.07-5.82-8.94-16.44-13.42-31.88-13.42s-29.81,6.04-41.1,18.12c-11.3,12.08-16.94,26.29-16.94,42.62,0,13.2,3.86,23.71,11.57,31.54,7.72,7.83,18.06,11.74,31.04,11.74,6.49,0,13.08-1.34,19.79-4.03,6.71-2.68,11.96-6.26,15.77-10.74,0,.22-.23,1.23-.67,3.02-.45,1.79-.67,3.14-.67,4.03,0,3.58,1.45,5.37,4.36,5.37h23.15c4.24,0,6.71-2.12,7.38-6.38l13.76-87.58c.22-1.34-.11-2.57-1.01-3.69-.9-1.11-2.01-1.68-3.36-1.68h0ZM579.74,115.44c-5.7,5.59-12.58,8.39-20.64,8.39-6.49,0-11.74-1.79-15.77-5.37-4.03-3.57-6.04-8.49-6.04-14.77,0-8.27,2.8-15.27,8.39-20.97,5.59-5.7,12.53-8.56,20.8-8.56,6.26,0,11.46,1.85,15.6,5.54,4.14,3.69,6.21,8.78,6.21,15.27,0,8.05-2.85,14.88-8.56,20.47h0Z"/>
  <path class="cls-2" d="M242.34,49.33h-25.5c-3.14,0-5.03,3.69-5.71,11.07-6.04-8.94-16.67-13.42-31.88-13.42-16.11,0-29.81,6.04-41.11,18.12-11.3,12.08-16.94,26.29-16.94,42.62,0,13.2,3.86,23.71,11.58,31.54,7.72,7.83,18.06,11.74,31.04,11.74,6.26,0,12.75-1.34,19.46-4.03,6.71-2.68,12.08-6.26,16.11-10.74-.9,2.68-1.34,5.03-1.34,7.04,0,3.58,1.45,5.37,4.36,5.37h23.15c4.25,0,6.71-2.12,7.38-6.38l13.76-87.58c.22-1.34-.11-2.57-1.01-3.69-.9-1.11-2.01-1.68-3.35-1.68h0ZM198.55,115.6c-5.71,5.49-12.7,8.22-20.97,8.22-6.49,0-11.69-1.79-15.6-5.37-3.92-3.57-5.87-8.49-5.87-14.77,0-8.27,2.79-15.27,8.39-20.97,5.59-5.7,12.52-8.56,20.8-8.56,6.26,0,11.46,1.85,15.6,5.54,4.14,3.69,6.21,8.78,6.21,15.27,0,8.28-2.85,15.16-8.56,20.63h0Z"/>
  <path class="cls-1" d="M497.53,8.89C488.91,2.97,477.67,0,463.8,0h-53.35c-4.48,0-6.94,2.13-7.38,6.37l-21.81,136.9c-.23,1.35.11,2.58,1.01,3.69.89,1.12,2.01,1.68,3.35,1.68h27.51c2.68,0,4.47-1.45,5.37-4.36l6.04-38.92c.22-1.79,1.01-3.24,2.35-4.36,1.34-1.12,3.02-1.85,5.03-2.18,2.01-.33,3.91-.5,5.7-.5s3.91.11,6.37.34c2.46.22,4.03.33,4.7.33,19.24,0,34.34-5.42,45.3-16.27,10.96-10.85,16.44-25.89,16.44-45.13,0-13.2-4.31-22.76-12.92-28.69h0ZM463.13,64.09c-4.92,3.35-12.3,5.03-22.15,5.03l-10.74.34,5.7-35.9c.44-2.46,1.9-3.69,4.36-3.69h6.04c4.92,0,8.83.22,11.75.67,2.9.45,5.7,1.85,8.39,4.19,2.69,2.35,4.03,5.76,4.03,10.24,0,9.39-2.46,15.77-7.38,19.13Z"/>
</svg>